{
    "asset" : {
        "generator" : "Khronos glTF Blender I/O v1.5.17",
        "version" : "2.0"
    },
    "scene" : 0,
    "scenes" : [
        {
            "name" : "Scene",
            "nodes" : [
                0
            ]
        }
    ],
    "nodes" : [
        {
            "mesh" : 0,
            "name" : "Cube"
        }
    ],
    "meshes" : [
        {
            "name" : "Cube",
            "primitives" : [
                {
                    "attributes" : {
                        "POSITION" : 0
                    },
                    "indices" : 1
                }
            ]
        }
    ],
    "accessors" : [
        {
            "bufferView" : 0,
            "componentType" : 5126,
            "count" : 125000,
            "max" : [
                2.3567700386047363,
                2.3611228466033936,
                2.3777859210968018
            ],
            "min" : [
                -2.3779525756835938,
                -2.3735997676849365,
                -2.3569366931915283
            ],
            "type" : "VEC3"
        },
        {
            "bufferView" : 1,
            "componentType" : 5125,
            "count" : 562500,
            "type" : "SCALAR"
        }
    ],
    "bufferViews" : [
        {
            "buffer" : 0,
            "byteLength" : 1500000,
            "byteOffset" : 0
        },
        {
            "buffer" : 0,
            "byteLength" : 2250000,
            "byteOffset" : 1500000
        }
    ],
    "buffers" : [
        {
            "byteLength" : 3750000,
            "uri" : "stress.bin"
        }
    ]
}
