{
    "asset" : {
        "generator" : "Khronos glTF Blender I/O v1.5.17",
        "version" : "2.0"
    },
    "scene" : 0,
    "scenes" : [
        {
            "name" : "Scene",
            "nodes" : [
                0
            ]
        }
    ],
    "nodes" : [
        {
            "mesh" : 0,
            "name" : "Icosphere"
        }
    ],
    "meshes" : [
        {
            "name" : "Icosphere",
            "primitives" : [
                {
                    "attributes" : {
                        "POSITION" : 0,
                        "COLOR" : 1
                    },
                    "indices" : 2
                }
            ]
        }
    ],
    "accessors" : [
        {
            "bufferView" : 0,
            "componentType" : 5126,
            "count" : 12,
            "max" : [
                0.8944249749183655,
                0.8506399989128113,
                1
            ],
            "min" : [
                -0.8944249749183655,
                -0.8506399989128113,
                -1
            ],
            "type" : "VEC3",
            "byteOffset" : 0
        },
        {
            "bufferView" : 1,
            "componentType" : 5123,
            "count" : 12,
            "normalized" : true,
            "type" : "VEC4",
            "byteOffset" : 0
        },
        {
            "bufferView" : 2,
            "componentType" : 5123,
            "count" : 60,
            "type" : "SCALAR",
            "byteOffset" : 0
        }
    ],
    "bufferViews" : [
        {
            "buffer" : 0,
            "byteLength" : 144,
            "byteOffset" : 0
        },
        {
            "buffer" : 0,
            "byteLength" : 96,
            "byteOffset" : 144
        },
        {
            "buffer" : 0,
            "byteLength" : 120,
            "byteOffset" : 240
        }
    ],
    "buffers" : [
        {
            "byteLength" : 360,
            "uri" : "untitled.bin"
        }
    ]
}
